<?xml version="1.0" encoding="UTF-8" standalone="no"?>
<svg
   xmlns:dc="http://purl.org/dc/elements/1.1/"
   xmlns:cc="http://creativecommons.org/ns#"
   xmlns:rdf="http://www.w3.org/1999/02/22-rdf-syntax-ns#"
   xmlns:svg="http://www.w3.org/2000/svg"
   xmlns="http://www.w3.org/2000/svg"
   id="svg44"
   xml:space="preserve"
   viewBox="0 0 588 168"
   height="168"
   width="588"
   version="1.1"><metadata
     id="metadata48"><rdf:RDF><cc:Work
         rdf:about=""><dc:format>image/svg+xml</dc:format><dc:type
           rdf:resource="http://purl.org/dc/dcmitype/StillImage" /></cc:Work></rdf:RDF></metadata><desc
     id="desc2">Created with Fabric.js 2.4.6</desc><defs
     id="defs4" /><g
     id="g8"
     transform="translate(617,26.4)"><path
       id="rect6"
       d="M -50,-50 H 50 V 50 H -50 Z"
       style="opacity:1;fill:#000000;fill-opacity:0;fill-rule:nonzero;stroke:#000000;stroke-width:0;stroke-linecap:butt;stroke-linejoin:miter;stroke-miterlimit:4;stroke-dasharray:none;stroke-dashoffset:0" /></g><g
     id="g18"
     transform="matrix(0.87,0,0,0.87,45.59,45.8)"><g
       id="g12"><path
         id="path10"
         d="m 14.152,-33.417 c -1.133,0.191 -2.036,1.055 -2.272,2.177 -0.052,0.187 -0.083,0.377 -0.095,0.568 l -2.556,9.278 c -1.037,0.195 -2.109,0.392 -3.124,0.663 -1.22,0.329 -2.345,0.803 -3.503,1.231 l -7.857,-7.006 c -0.883,-0.799 -2.176,-0.951 -3.219,-0.378 -3.225,1.825 -6.21,4.007 -8.899,6.438 -0.896,0.816 -1.165,2.117 -0.663,3.219 l 4.45,9.467 c -1.444,1.743 -2.754,3.614 -3.881,5.586 L -28.07,-2.553 c -1.234,-0.044 -2.349,0.727 -2.746,1.894 -1.28,3.413 -2.139,6.955 -2.651,10.603 -0.174,1.228 0.481,2.423 1.609,2.935 l 9.373,4.354 c 0.028,2.237 0.236,4.479 0.663,6.722 l -8.331,6.627 c -0.956,0.731 -1.335,1.988 -0.947,3.124 1.247,3.523 2.924,6.71 4.828,9.751 0.639,1.021 1.859,1.515 3.03,1.231 l 10.035,-2.651 c 1.468,1.704 3.114,3.23 4.829,4.639 l -2.178,10.509 c -0.223,1.16 0.308,2.337 1.326,2.935 3.142,1.85 6.532,3.408 10.035,4.544 1.157,0.37 2.42,-0.053 3.124,-1.041 L 9.892,55.1 c 2.235,0.373 4.512,0.497 6.816,0.474 l 4.921,9.372 c 0.574,1.054 1.755,1.627 2.936,1.42 1.544,-0.263 3.073,-0.526 4.639,-0.946 2.023,-0.541 3.981,-1.225 5.869,-1.988 1.166,-0.438 1.899,-1.598 1.799,-2.84 L 35.83,48.757 c -0.131,-1.541 -1.485,-2.687 -3.029,-2.556 -1.542,0.13 -2.687,1.485 -2.557,3.029 v 0 l 0.853,9.656 c -1.101,0.391 -2.172,0.831 -3.313,1.136 -0.723,0.195 -1.459,0.319 -2.178,0.474 L 20.873,51.597 C 20.341,50.651 19.308,50.094 18.222,50.177 15.119,50.364 12.084,50.071 9.136,49.42 8.016,49.159 6.852,49.609 6.201,50.556 L 0.616,58.508 C -1.173,57.83 -2.902,57.044 -4.591,56.142 l 1.988,-9.751 c 0.2,-1.039 -0.203,-2.101 -1.041,-2.746 -2.457,-1.822 -4.655,-4.003 -6.532,-6.438 -0.7,-0.875 -1.855,-1.248 -2.935,-0.946 l -9.277,2.461 c -0.953,-1.668 -1.821,-3.396 -2.556,-5.207 l 7.763,-6.153 c 0.839,-0.684 1.207,-1.79 0.947,-2.84 -0.732,-3.083 -1.072,-6.112 -0.947,-9.088 0.01,-1.093 -0.62,-2.092 -1.609,-2.556 l -8.709,-4.166 c 0.355,-1.897 0.92,-3.762 1.515,-5.585 l 9.846,0.284 c 1.072,0.028 2.065,-0.561 2.556,-1.515 1.364,-2.713 3.127,-5.292 5.207,-7.574 0.747,-0.826 0.933,-2.015 0.473,-3.029 l -4.071,-8.71 c 1.5,-1.241 3.062,-2.362 4.733,-3.408 l 7.29,6.532 c 0.826,0.749 2.015,0.935 3.03,0.474 1.467,-0.627 2.935,-1.083 4.544,-1.515 1.423,-0.38 2.875,-0.762 4.26,-0.947 1.081,-0.16 1.969,-0.938 2.272,-1.988 l 2.556,-9.372 c 1.909,0.031 3.788,0.104 5.679,0.378 l 1.42,9.846 c 0.163,1.082 0.94,1.97 1.988,2.272 2.926,0.879 5.739,2.144 8.331,3.787 0.946,0.638 2.18,0.638 3.124,0 l 7.857,-5.585 c 1.485,1.257 2.861,2.634 4.165,4.071 l -5.111,8.331 c -0.595,0.923 -0.595,2.108 0,3.03 1.65,2.509 3.023,5.244 3.976,8.236 0.319,1.08 1.252,1.862 2.367,1.988 L 60.07,9.47 c 0.322,1.932 0.595,3.861 0.662,5.775 L 51.36,18.37 c -1.041,0.349 -1.78,1.274 -1.894,2.366 -0.357,3.068 -1.207,6.095 -2.366,8.899 -0.408,1.053 -0.148,2.248 0.662,3.029 l 8.426,8.426 c 1.101,1.101 2.879,1.101 3.977,0 1.101,-1.098 1.101,-2.876 0,-3.977 L 52.78,29.824 c 0.764,-2.143 1.326,-4.364 1.704,-6.627 L 64.519,19.884 C 65.662,19.54 66.457,18.517 66.507,17.327 66.539,13.724 66.152,9.998 65.371,6.346 65.11,5.164 64.116,4.284 62.909,4.169 L 52.586,3.221 C 51.778,1.076 50.788,-0.915 49.651,-2.838 l 5.586,-9.088 c 0.627,-1.004 0.55,-2.293 -0.189,-3.219 -2.357,-2.852 -5.089,-5.346 -7.952,-7.573 -0.965,-0.753 -2.308,-0.792 -3.313,-0.093 l -8.521,5.963 c -1.932,-1.092 -3.952,-2.083 -6.059,-2.84 l -1.515,-10.508 c -0.166,-1.197 -1.083,-2.152 -2.272,-2.367 -3.526,-0.654 -7.242,-0.988 -10.98,-0.852 -0.095,-0.006 -0.189,-0.006 -0.284,-0.002 z"
         transform="translate(-16.51,-16.48)"
         style="opacity:1;fill:#000000;fill-rule:nonzero;stroke:none;stroke-width:1;stroke-linecap:butt;stroke-linejoin:miter;stroke-miterlimit:4;stroke-dasharray:none;stroke-dashoffset:0" /></g><g
       id="g16"
       transform="translate(-0.03,0.97)"><path
         id="path14"
         d="m 18.979,-1.04 c -2.402,-0.337 -4.9,-0.285 -7.383,0.379 C 1.663,2.002 -4.225,12.318 -1.563,22.249 1.098,32.184 11.32,38.166 21.251,35.503 22.76,35.184 23.727,33.704 23.41,32.195 23.091,30.683 21.605,29.719 20.097,30.036 20.008,30.057 19.919,30.08 19.83,30.107 12.822,31.985 5.71,27.837 3.833,20.829 1.954,13.824 6.101,6.614 13.11,4.735 c 7.01,-1.877 14.122,2.271 15.998,9.278 0.911,3.39 0.42,6.798 -1.136,9.656 -0.758,1.361 -0.27,3.077 1.088,3.835 1.361,0.757 3.077,0.271 3.835,-1.089 2.216,-4.062 2.898,-9.016 1.609,-13.822 C 32.511,5.144 26.191,-0.025 18.979,-1.04 Z"
         transform="translate(-16.47,-17.45)"
         style="opacity:1;fill:#000000;fill-rule:nonzero;stroke:none;stroke-width:1;stroke-linecap:butt;stroke-linejoin:miter;stroke-miterlimit:4;stroke-dasharray:none;stroke-dashoffset:0" /></g></g><g
     id="g24"
     transform="translate(183.69,152.38)"><g
       id="text22"
       style="font-style:normal;font-size:96px;font-family:'Bakbak One';white-space:pre;opacity:1;fill:#000000;fill-rule:nonzero;stroke:none;stroke-width:1;stroke-linecap:butt;stroke-linejoin:miter;stroke-miterlimit:4;stroke-dasharray:none;stroke-dashoffset:0"
       aria-label="ent"><path
         id="path51"
         style=""
         d="m -25.246002,-26.48 q -2.688,0.96 -7.488,1.728 -4.704,0.672 -11.232,0.672 -8.256,0 -14.112,-2.112 -5.76,-2.208 -8.736,-7.392 -2.976,-5.28 -2.976,-14.592 0,-12.672 5.76,-18.336 5.856,-5.664 18.048,-5.664 8.736,0 13.728,2.496 5.088,2.496 7.2,7.104 2.208,4.512 2.208,10.752 0,1.824 -0.192,3.936 -0.096,2.112 -0.48,4.128 l -0.384,0.384 h -31.584 q 0.672,4.224 3.936,5.568 3.36,1.344 10.848,1.344 4.992,0 8.256,-0.192 3.36,-0.288 6.816,-0.768 l 0.384,0.288 z m -10.944,-26.976 q 0,-2.304 -0.768,-3.936 -0.672,-1.728 -2.784,-2.592 -2.112,-0.96 -6.24,-0.96 -6.048,0 -7.968,2.112 -1.824,2.016 -1.824,5.376 z" /><path
         id="path53"
         style=""
         d="M 0.67999756,-24.944 H -14.680002 v -46.752 h 14.59199956 l 0.768,8.544 h 0.288 q 1.34400004,-4.32 4.80000004,-6.624 3.456,-2.4 9.6000004,-2.4 8.352,0 12.288,4.704 4.032,4.704 4.032,16.32 v 26.208 h -15.36 l -0.096,-23.232 q 0,-5.376 -1.632,-7.68 -1.632,-2.304 -6.1440004,-2.304 -4.224,0 -5.952,2.112 -1.72800004,2.016 -1.82400004,7.008 z" /><path
         id="path55"
         style=""
         d="m 43.279998,-38.96 v -20.16 h -5.76 V -71.6 h 7.2 l 2.88,-11.424 h 11.04 V -71.6 h 10.464 v 12.48 h -10.464 v 16.8 q 0,2.688 0.672,3.744 0.672,0.96 3.072,0.96 1.536,0 3.264,-0.096 1.728,-0.192 3.456,-0.384 l 0.288,0.192 v 12.48 q -4.608,1.344 -12.192,1.344 -7.584,0 -10.752,-3.456 -3.168,-3.456 -3.168,-11.424 z" /></g></g><g
     id="g30"
     transform="translate(420.59,150.9)"><g
       id="text28"
       style="font-style:normal;font-weight:normal;font-size:96px;font-family:Audiowide;white-space:pre;opacity:1;fill:#ac0000;fill-rule:nonzero;stroke:none;stroke-width:1;stroke-linecap:butt;stroke-linejoin:miter;stroke-miterlimit:4;stroke-dasharray:none;stroke-dashoffset:0"
       aria-label="Servis"><path
         id="path58"
         style=""
         d="m -96.418121,-43.86125 q 0,3.609375 -0.9375,6.515625 -0.890625,2.859375 -2.390625,5.0625 -1.500004,2.203125 -3.515624,3.75 -2.01563,1.546875 -4.17188,2.53125 -2.15625,0.984375 -4.40625,1.453125 -2.20312,0.46875 -4.17187,0.46875 h -47.01563 v -12.1875 h 47.01563 q 3.51562,0 5.4375,-2.0625 1.96875,-2.0625 1.96875,-5.53125 0,-1.6875 -0.51563,-3.09375 -0.51562,-1.40625 -1.5,-2.4375 -0.9375,-1.03125 -2.34375,-1.59375 -1.35937,-0.5625 -3.04687,-0.5625 h -28.03125 q -2.95313,0 -6.375,-1.03125 -3.42188,-1.078125 -6.375,-3.421875 -2.90625,-2.34375 -4.875,-6.140625 -1.92188,-3.796875 -1.92188,-9.28125 0,-5.484375 1.92188,-9.234375 1.96875,-3.796875 4.875,-6.140625 2.95312,-2.390625 6.375,-3.421875 3.42187,-1.078125 6.375,-1.078125 h 41.48437 v 12.1875 h -41.48437 q -3.46875,0 -5.4375,2.109375 -1.92188,2.109375 -1.92188,5.578125 0,3.515625 1.92188,5.578125 1.96875,2.015625 5.4375,2.015625 h 28.03125 0.0937 q 1.96875,0.04687 4.17187,0.5625 2.20313,0.46875 4.35938,1.5 2.20312,1.03125 4.17187,2.625 1.96875,1.546875 3.468754,3.75 1.546875,2.203125 2.4375,5.0625 0.890625,2.859375 0.890625,6.46875 z" /><path
         id="path60"
         style=""
         d="m -33.043121,-57.970625 q 0,2.53125 -0.890625,5.484375 -0.890625,2.90625 -2.90625,5.4375 -1.96875,2.484375 -5.203125,4.171875 -3.1875,1.6875 -7.78125,1.6875 H -71.808746 V -52.7675 h 21.984375 q 2.484375,0 3.84375,-1.5 1.359375,-1.546875 1.359375,-3.796875 0,-2.390625 -1.546875,-3.75 -1.5,-1.359375 -3.65625,-1.359375 h -21.984375 q -2.484375,0 -3.84375,1.546875 -1.359375,1.5 -1.359375,3.75 v 17.015625 q 0,2.4375 1.5,3.796875 1.546875,1.359375 3.796875,1.359375 h 21.890625 v 11.625 h -21.984375 q -2.53125,0 -5.484375,-0.890625 -2.90625,-0.890625 -5.4375,-2.859375 -2.484375,-2.015625 -4.171875,-5.203125 -1.6875,-3.234375 -1.6875,-7.828125 v -17.109375 q 0,-2.53125 0.890625,-5.4375 0.890625,-2.953125 2.859375,-5.4375 2.015625,-2.53125 5.203125,-4.21875 3.234375,-1.6875 7.828125,-1.6875 h 21.984375 q 2.53125,0 5.4375,0.890625 2.953125,0.890625 5.4375,2.90625 2.53125,1.96875 4.21875,5.203125 1.6875,3.1875 1.6875,7.78125 z" /><path
         id="path62"
         style=""
         d="M 19.597504,-62.564375 H -7.8243713 q -2.4843747,0 -3.7499997,1.265625 -1.265625,1.21875 -1.265625,3.609375 V -24.08 h -12.1875 v -33.609375 q 0,-3.140625 0.796875,-5.625 0.796875,-2.484375 2.109375,-4.359375 1.359375,-1.921875 3.09375,-3.234375 1.734375,-1.359375 3.609375,-2.203125 1.921875,-0.84375 3.84375,-1.21875 1.9687497,-0.421875 3.6562497,-0.421875 H 19.597504 Z" /><path
         id="path64"
         style=""
         d="m 88.035004,-74.751875 q -2.0625,6.421875 -4.828125,12.65625 -2.765625,6.234375 -6.375,11.90625 -3.5625,5.625 -8.015625,10.453125 -4.40625,4.78125 -9.796875,8.296875 -5.34375,3.46875 -11.671875,5.484375 -6.28125,1.96875 -13.640625,1.96875 -1.265625,0 -2.390625,-0.46875 -1.125,-0.46875 -1.96875,-1.265625 -0.84375,-0.84375 -1.3125,-1.921875 -0.46875,-1.125 -0.46875,-2.390625 v -44.71875 h 12.1875 V -36.6425 q 4.453125,0 8.53125,-1.921875 4.125,-1.921875 7.78125,-5.0625 3.65625,-3.1875 6.75,-7.21875 3.140625,-4.03125 5.578125,-8.25 2.4375,-4.265625 4.125,-8.34375 1.734375,-4.078125 2.578125,-7.3125 z" /><path
         id="path66"
         style=""
         d="M 104.81625,-85.158125 H 92.628754 V -96.17375 h 12.187496 z m 0,61.078125 H 92.628754 v -50.671875 h 12.187496 z" /><path
         id="path68"
         style=""
         d="m 165.42563,-41.189375 q 0,3.140625 -0.79688,5.671875 -0.79687,2.484375 -2.10937,4.40625 -1.3125,1.875 -3.04688,3.234375 -1.73437,1.3125 -3.65625,2.15625 -1.875,0.84375 -3.84375,1.265625 -1.92187,0.375 -3.65625,0.375 h -33 v -12.1875 h 32.90625 q 2.48438,0 3.75,-1.265625 1.26563,-1.265625 1.26563,-3.65625 -0.23438,-4.875 -4.92188,-4.875 h -18.89062 q -4.03125,0 -6.84375,-1.40625 -2.8125,-1.40625 -4.59375,-3.515625 -1.73438,-2.109375 -2.53125,-4.546875 -0.75,-2.4375 -0.75,-4.546875 0,-4.078125 1.45312,-6.84375 1.45313,-2.8125 3.65625,-4.546875 2.20313,-1.734375 4.78125,-2.484375 2.57813,-0.796875 4.82813,-0.796875 h 29.95312 v 12.1875 h -29.85937 q -0.9375,0 -1.5,0.234375 -0.51563,0.1875 -0.79688,0.5625 -0.23437,0.328125 -0.28125,0.75 -0.0469,0.375 -0.0469,0.75 0.0469,0.75 0.28125,1.171875 0.23437,0.421875 0.5625,0.609375 0.375,0.1875 0.79687,0.234375 0.46875,0 0.89063,0 h 18.89062 q 4.6875,0 7.96875,1.6875 3.28125,1.6875 5.29688,4.265625 2.01562,2.53125 2.90625,5.53125 0.9375,3 0.9375,5.578125 z" /></g></g><g
     id="g36"
     transform="translate(82.68,94.75)"><g
       id="text34"
       style="font-style:normal;font-weight:normal;font-size:107px;font-family:'Bakbak One';white-space:pre;opacity:1;fill:#000000;fill-rule:nonzero;stroke:none;stroke-width:1;stroke-linecap:butt;stroke-linejoin:miter;stroke-miterlimit:4;stroke-dasharray:none;stroke-dashoffset:0"
       aria-label="R"><path
         id="path71"
         style=""
         d="m -10.969998,32.647001 h -17.12 v -67.731 H 4.2240017 q 12.7330003,0 18.5110003,5.778 5.885,5.671 5.885,16.799 0,8.3459996 -4.173,14.3379996 -4.173,5.885 -11.021,7.383 l -0.107,0.321 q 2.675,1.7120004 5.885,5.6710004 3.21,3.959 6.313,8.667 3.21,4.601 5.671,8.667 v 0.107 h -19.902 l -11.55600032,-17.12 q -1.49799998,-2.247 -2.46099998,-3.21 -0.856,-0.963 -2.14,-1.177 -1.177,-0.214 -3.852,-0.214 h -2.2469997 z m 12.4119997,-53.821 H -10.969998 V -2.9839994 H 1.4420017 q 5.35,0 7.383,-2.14 2.1400003,-2.14 2.1400003,-6.9549996 0,-4.815 -2.1400003,-6.955 -2.033,-2.14 -7.383,-2.14 z" /></g></g><g
     id="g42"
     transform="translate(470.28,150.51)"><g
       id="text40"
       style="font-style:normal;font-weight:normal;font-size:28px;font-family:'Open Sans';white-space:pre;opacity:1;fill:#000000;fill-rule:nonzero;stroke:none;stroke-width:1;stroke-linecap:butt;stroke-linejoin:miter;stroke-miterlimit:4;stroke-dasharray:none;stroke-dashoffset:0"
       aria-label="požičovňa náradia"><path
         id="path74"
         style=""
         d="m -116.54375,-6.1843748 h 1.84571 l 0.31445,2.0507812 h 0.10937 q 0.86133,-1.203125 2.00977,-1.7636718 1.16211,-0.5605469 2.69336,-0.5605469 1.98242,0 3.37695,0.9160156 1.39453,0.9160156 2.11914,2.6523438 0.72461,1.7363281 0.72461,4.1835937 0,2.4472656 -0.73828,4.1972656 -0.73828,1.75 -2.14648,2.6660157 -1.39453,0.9160156 -3.33594,0.9160156 -1.49024,0 -2.69336,-0.546875 -1.20313,-0.5605469 -2.00977,-1.6542969 h -0.16406 q 0.16406,1.3125 0.16406,2.4882813 v 6.1660159 h -2.26953 z m 6.69922,13.3574219 q 1.28516,0 2.21485,-0.7109375 0.92968,-0.7109375 1.42187,-2.0371094 0.50586,-1.3261719 0.50586,-3.1582031 0,-2.7890625 -1.09375,-4.2929688 -1.09375,-1.5039062 -3.10352,-1.5039062 -1.53125,0 -2.48828,0.5605468 -0.95703,0.5605469 -1.4082,1.7226563 -0.45117,1.1621094 -0.47852,3.03515624 V 1.2941408 q 0,2.1191406 0.45118,3.4042969 0.46484,1.2851562 1.43554,1.8867187 0.97071,0.5878907 2.54297,0.5878907 z" /><path
         id="path76"
         style=""
         d="m -93.383591,9.0734377 q -2.009765,0 -3.568359,-0.9433594 -1.558594,-0.9433594 -2.40625,-2.7070312 -0.84766,-1.7773438 -0.84766,-4.1289063 0,-2.4199219 0.820316,-4.15625 0.833985,-1.75 2.378906,-2.6660156 1.558594,-0.9296875 3.71875,-0.9296875 2.078125,0 3.623047,0.9433594 1.558594,0.9433593 2.392578,2.6933593 0.833985,1.75 0.833985,4.1152344 0,2.4199219 -0.833985,4.1699219 -0.833984,1.75 -2.392578,2.6796875 -1.558593,0.9296875 -3.71875,0.9296875 z m 0.05469,-1.9003906 q 2.228515,0 3.376953,-1.4902344 1.162109,-1.5039063 1.162109,-4.3886719 0,-2.8710937 -1.162109,-4.3476562 -1.148438,-1.4765625 -3.404297,-1.4765625 -2.228516,0 -3.363281,1.4628906 -1.134766,1.4628906 -1.134766,4.3613281 0,2.8710938 1.148438,4.375 1.162109,1.5039063 3.376953,1.5039063 z" /><path
         id="path78"
         style=""
         d="m -83.758591,8.8000002 z m 0,-1.5449219 8.175782,-11.6757812 h -7.669922 v -1.7636719 h 10.158203 v 1.7636719 l -8.066406,11.4570312 h 8.271484 v 1.7636719 h -10.869141 z m 4.320313,-15.421875 q -0.300781,-0.546875 -1.011719,-1.421875 -0.697266,-0.8613283 -2.433594,-2.7207033 v -0.341797 h 1.572266 q 1.558594,0.998047 2.994141,2.583985 1.804687,-1.804688 3.021484,-2.583985 h 1.626953 v 0.341797 l -0.902344,0.929688 q -1.955078,2.0234372 -2.597656,3.2128903 z" /><path
         id="path80"
         style=""
         d="m -69.539841,8.8000002 z m 0.191407,-14.984375 h 2.269531 v 14.984375 h -2.269531 z m 1.148437,-2.5429688 q -0.601562,0 -0.970703,-0.3828125 -0.369141,-0.3964843 -0.369141,-1.1347659 0,-0.751953 0.369141,-1.121093 0.369141,-0.382813 0.970703,-0.382813 0.574219,0 0.957031,0.382813 0.382813,0.382812 0.382813,1.121093 0,0.7382816 -0.382813,1.1347659 -0.382812,0.3828125 -0.957031,0.3828125 z" /><path
         id="path82"
         style=""
         d="m -63.073044,8.8000002 z m 6.822266,0.2734375 q -2.160156,0 -3.691406,-0.9023438 -1.53125,-0.9023437 -2.337891,-2.6113281 -0.792969,-1.7226562 -0.792969,-4.15625 0,-2.5019531 0.806641,-4.265625 0.820312,-1.7636719 2.378906,-2.6796875 1.558594,-0.9160156 3.787109,-0.9160156 1.052735,0 2.132813,0.2324219 1.09375,0.21875 1.722656,0.546875 l -0.697265,1.9277343 q -0.765625,-0.3007812 -1.654297,-0.4921875 -0.888672,-0.2050781 -1.558594,-0.2050781 -4.566406,0 -4.566406,5.8242188 0,2.7753906 1.121093,4.2519531 1.121094,1.4628906 3.294922,1.4628906 1.859375,0 3.841797,-0.8066406 v 2.0097656 q -1.490234,0.7792969 -3.787109,0.7792969 z m -1.462891,-17.2402344 q -0.300781,-0.546875 -1.011719,-1.421875 -0.697265,-0.8613283 -2.433593,-2.7207033 v -0.341797 h 1.572265 q 1.558594,0.998047 2.994141,2.583985 1.804687,-1.804688 3.021484,-2.583985 h 1.626953 v 0.341797 l -0.902343,0.929688 q -1.955078,2.0234372 -2.597657,3.2128903 z" /><path
         id="path84"
         style=""
         d="m -42.907028,9.0734377 q -2.009766,0 -3.56836,-0.9433594 -1.558593,-0.9433594 -2.40625,-2.7070312 -0.847656,-1.7773438 -0.847656,-4.1289063 0,-2.4199219 0.820313,-4.15625 0.833984,-1.75 2.378906,-2.6660156 1.558594,-0.9296875 3.71875,-0.9296875 2.078125,0 3.623047,0.9433594 1.558594,0.9433593 2.392578,2.6933593 0.833984,1.75 0.833984,4.1152344 0,2.4199219 -0.833984,4.1699219 -0.833984,1.75 -2.392578,2.6796875 -1.558594,0.9296875 -3.71875,0.9296875 z m 0.05469,-1.9003906 q 2.228516,0 3.376953,-1.4902344 1.16211,-1.5039063 1.16211,-4.3886719 0,-2.8710937 -1.16211,-4.3476562 -1.148437,-1.4765625 -3.404296,-1.4765625 -2.228516,0 -3.363282,1.4628906 -1.134765,1.4628906 -1.134765,4.3613281 0,2.8710938 1.148437,4.375 1.16211,1.5039063 3.376953,1.5039063 z" /><path
         id="path86"
         style=""
         d="m -34.403122,-6.1843748 h 2.433594 l 3.226562,8.8867187 q 1.121094,3.1992188 1.285157,4.046875 h 0.109375 q 0.136718,-0.65625 0.957031,-3.0078125 0.984375,-2.78906246 3.582031,-9.9257812 h 2.433594 l -5.6875,14.984375 h -2.652344 z" /><path
         id="path88"
         style=""
         d="m -17.942184,8.8000002 z m 0,-14.984375 h 1.845703 l 0.36914,2.0507812 h 0.109375 q 0.697266,-1.1074218 1.941407,-1.7089843 1.257812,-0.6152344 2.816406,-0.6152344 2.7480467,0 4.0878904,1.3261719 1.3535157,1.3261718 1.3535157,4.15624997 V 8.8000002 h -2.2695313 v -9.69335938 q 0,-1.84570312 -0.8476562,-2.73437502 -0.8339844,-0.9023437 -2.5976566,-0.9023437 -1.585937,0 -2.583984,0.5605468 -0.998047,0.5605469 -1.476563,1.7636719 -0.478515,1.1894531 -0.478515,3.14453127 V 8.8000002 h -2.269531 z m 5.126953,-1.9824219 q -0.300782,-0.546875 -1.011719,-1.421875 -0.697266,-0.8613283 -2.433594,-2.7207033 v -0.341797 h 1.572266 q 1.558594,0.998047 2.99414,2.583985 1.8046879,-1.804688 3.0214848,-2.583985 h 1.6269531 v 0.341797 l -0.9023437,0.929688 q -1.9550781,2.0234372 -2.5976562,3.2128903 z" /><path
         id="path90"
         style=""
         d="m 2.8664093,9.0734377 q -2.2421875,0 -3.5,-1.1484375 -1.2578125,-1.1621094 -1.2578125,-3.2675781 0,-4.53906253 7.2597656,-4.75781253 l 2.5429688,-0.0820313 V -1.1121092 q 0,-1.7773437 -0.765625,-2.6113281 -0.765625,-0.8339844 -2.4199219,-0.8339844 -1.8867187,0 -4.23828125,1.1484375 l -0.69726562,-1.7363281 q 1.12109375,-0.6152344 2.43359377,-0.9433594 1.3261719,-0.3417969 2.6386719,-0.3417969 2.6933593,0 3.9785156,1.203125 1.2851563,1.1894532 1.2851563,3.8007813 V 8.8000002 H 8.4445343 L 7.9933624,6.6671877 H 7.8839874 Q 7.1457062,7.5968752 6.4210968,8.1300783 5.6964874,8.6496096 4.8488312,8.8546877 4.0148468,9.0734377 2.8664093,9.0734377 Z M 3.3175812,7.2003908 q 2.1328125,0 3.3359375,-1.1621094 1.203125,-1.1621093 1.203125,-3.2539062 V 1.4308596 L 5.5871124,1.5265627 Q 3.7687531,1.5949221 2.6476593,1.9503908 1.5402374,2.2921877 1.0070343,2.9621096 0.48750305,3.6320314 0.48750305,4.6847658 q 0,1.2167969 0.73828125,1.8730469 0.7382813,0.6425781 2.0917969,0.6425781 z" /><path
         id="path92"
         style=""
         d="m 22.089066,-6.1843748 h 1.845703 l 0.36914,2.0507812 h 0.109375 q 0.697266,-1.1074218 1.941407,-1.7089843 1.257812,-0.6152344 2.816406,-0.6152344 2.748047,0 4.08789,1.3261719 1.353516,1.3261718 1.353516,4.15624997 V 8.8000002 h -2.269531 v -9.69335938 q 0,-1.84570312 -0.847656,-2.73437502 -0.833985,-0.9023437 -2.597657,-0.9023437 -1.585937,0 -2.583984,0.5605468 -0.998047,0.5605469 -1.476563,1.7636719 -0.478515,1.1894531 -0.478515,3.14453127 V 8.8000002 h -2.269531 z" /><path
         id="path94"
         style=""
         d="m 38.139847,8.8000002 z m 4.757812,0.2734375 q -2.242187,0 -3.5,-1.1484375 -1.257812,-1.1621094 -1.257812,-3.2675781 0,-4.53906253 7.259765,-4.75781253 l 2.542969,-0.0820313 V -1.1121092 q 0,-1.7773437 -0.765625,-2.6113281 -0.765625,-0.8339844 -2.419922,-0.8339844 -1.886718,0 -4.238281,1.1484375 l -0.697266,-1.7363281 q 1.121094,-0.6152344 2.433594,-0.9433594 1.326172,-0.3417969 2.638672,-0.3417969 2.693359,0 3.978516,1.203125 1.285156,1.1894532 1.285156,3.8007813 V 8.8000002 H 48.475784 L 48.024612,6.6671877 h -0.109375 q -0.738281,0.9296875 -1.46289,1.4628906 -0.72461,0.5195313 -1.572266,0.7246094 -0.833984,0.21875 -1.982422,0.21875 z m 0.451172,-1.8730469 q 2.132813,0 3.335938,-1.1621094 1.203125,-1.1621093 1.203125,-3.2539062 V 1.4308596 l -2.269532,0.095703 q -1.818359,0.068359 -2.939453,0.4238281 -1.107422,0.3417969 -1.640625,1.0117188 -0.519531,0.6699218 -0.519531,1.7226562 0,1.2167969 0.738281,1.8730469 0.738282,0.6425781 2.091797,0.6425781 z M 42.815628,-8.5085936 q 0.65625,-0.8476562 1.408203,-2.0507814 0.765625,-1.203125 1.203125,-2.091797 h 2.761719 v 0.28711 q -0.615234,0.902343 -1.804688,2.201172 -1.189453,1.2988277 -2.050781,1.9960933 h -1.517578 z" /><path
         id="path96"
         style=""
         d="m 54.846878,-6.1843748 h 1.873047 l 0.259766,2.7753906 h 0.109375 q 0.833984,-1.4765625 2.009765,-2.2558594 1.189453,-0.7929687 2.583985,-0.7929687 0.984375,0 1.791015,0.1640625 l -0.314453,2.1054687 q -0.929687,-0.2050781 -1.640625,-0.2050781 -1.203125,0 -2.214844,0.6835938 -0.998047,0.6699218 -1.599609,1.859375 -0.587891,1.17578122 -0.587891,2.61132809 V 8.8000002 h -2.269531 z" /><path
         id="path98"
         style=""
         d="m 69.913284,9.0734377 q -2.242187,0 -3.5,-1.1484375 -1.257812,-1.1621094 -1.257812,-3.2675781 0,-4.53906253 7.259765,-4.75781253 l 2.542969,-0.0820313 V -1.1121092 q 0,-1.7773437 -0.765625,-2.6113281 -0.765625,-0.8339844 -2.419922,-0.8339844 -1.886718,0 -4.238281,1.1484375 l -0.697266,-1.7363281 q 1.121094,-0.6152344 2.433594,-0.9433594 1.326172,-0.3417969 2.638672,-0.3417969 2.693359,0 3.978516,1.203125 1.285156,1.1894532 1.285156,3.8007813 V 8.8000002 H 75.491409 L 75.040237,6.6671877 h -0.109375 q -0.738281,0.9296875 -1.46289,1.4628906 -0.72461,0.5195313 -1.572266,0.7246094 -0.833984,0.21875 -1.982422,0.21875 z m 0.451172,-1.8730469 q 2.132813,0 3.335938,-1.1621094 1.203125,-1.1621093 1.203125,-3.2539062 V 1.4308596 l -2.269532,0.095703 q -1.818359,0.068359 -2.939453,0.4238281 -1.107422,0.3417969 -1.640625,1.0117188 -0.519531,0.6699218 -0.519531,1.7226562 0,1.2167969 0.738281,1.8730469 0.738282,0.6425781 2.091797,0.6425781 z" /><path
         id="path100"
         style=""
         d="m 87.23555,9.0734377 q -1.955078,0 -3.349609,-0.9023438 -1.394532,-0.9023437 -2.132813,-2.6386718 -0.724609,-1.7363282 -0.724609,-4.1835938 0,-2.4472656 0.738281,-4.1972656 0.738281,-1.7636719 2.132812,-2.6796875 1.394532,-0.9296875 3.335938,-0.9296875 3.0625,0 4.675781,2.2148437 h 0.177735 l -0.0957,-1.0800781 -0.05469,-1.0527344 v -6.0976559 h 2.269531 V 8.8000002 H 92.362503 L 92.061722,6.7902346 H 91.938675 Q 90.352737,9.0734377 87.23555,9.0734377 Z m 0.287109,-1.9003906 q 1.558594,0 2.529297,-0.546875 0.970703,-0.5605469 1.421875,-1.7363282 0.464844,-1.1757812 0.464844,-3.0625 V 1.3488283 q 0,-2.13281248 -0.464844,-3.4179687 -0.464844,-1.2988282 -1.435547,-1.8867188 -0.970703,-0.6015625 -2.542968,-0.6015625 -1.996094,0 -3.0625,1.5449219 -1.052735,1.5449219 -1.052735,4.3886719 0,2.8710937 1.052735,4.3339843 1.052734,1.4628907 3.089843,1.4628907 z" /><path
         id="path102"
         style=""
         d="m 98.842972,8.8000002 z m 0.191406,-14.984375 h 2.269532 v 14.984375 h -2.269532 z m 1.148442,-2.5429688 q -0.601567,0 -0.970708,-0.3828125 -0.36914,-0.3964843 -0.36914,-1.1347659 0,-0.751953 0.36914,-1.121093 0.369141,-0.382813 0.970708,-0.382813 0.57421,0 0.95703,0.382813 0.38281,0.382812 0.38281,1.121093 0,0.7382816 -0.38281,1.1347659 -0.38282,0.3828125 -0.95703,0.3828125 z" /><path
         id="path104"
         style=""
         d="m 109.78047,9.0734377 q -2.24219,0 -3.5,-1.1484375 -1.25781,-1.1621094 -1.25781,-3.2675781 0,-4.53906253 7.25976,-4.75781253 l 2.54297,-0.0820313 V -1.1121092 q 0,-1.7773437 -0.76562,-2.6113281 -0.76563,-0.8339844 -2.41992,-0.8339844 -1.88672,0 -4.23828,1.1484375 l -0.69727,-1.7363281 q 1.12109,-0.6152344 2.43359,-0.9433594 1.32618,-0.3417969 2.63868,-0.3417969 2.69335,0 3.97851,1.203125 1.28516,1.1894532 1.28516,3.8007813 V 8.8000002 h -1.68164 l -0.45118,-2.1328125 h -0.10937 q -0.73828,0.9296875 -1.46289,1.4628906 -0.72461,0.5195313 -1.57227,0.7246094 -0.83398,0.21875 -1.98242,0.21875 z m 0.45117,-1.8730469 q 2.13282,0 3.33594,-1.1621094 1.20313,-1.1621093 1.20313,-3.2539062 V 1.4308596 l -2.26954,0.095703 q -1.81835,0.068359 -2.93945,0.4238281 -1.10742,0.3417969 -1.64062,1.0117188 -0.51953,0.6699218 -0.51953,1.7226562 0,1.2167969 0.73828,1.8730469 0.73828,0.6425781 2.09179,0.6425781 z" /></g></g></svg>